HIERARCHY
ROOT Hips
{
	OFFSET -3.958830 18.904000 13.208200
	CHANNELS 6 Xposition Yposition Zposition Zrotation Yrotation Xrotation 
	JOINT LHipJoint
	{
		OFFSET 0.000000 0.000000 0.000000
		CHANNELS 3 Zrotation Yrotation Xrotation
		JOINT LeftUpLeg
		{
			OFFSET 1.800000 -1.400000 0.085000
			CHANNELS 3 Zrotation Yrotation Xrotation
			JOINT LeftLeg
			{
				OFFSET 2.215000 -6.000000 0.000000
				CHANNELS 3 Zrotation Yrotation Xrotation
				JOINT LeftFoot
				{
					OFFSET 2.500000 -6.900000 0.000000
					CHANNELS 3 Zrotation Yrotation Xrotation
					JOINT LeftToeBase
					{
						OFFSET 0.200000 -0.500000 1.950000
						CHANNELS 3 Zrotation Yrotation Xrotation
						End Site
						{
							OFFSET 0.000000 0.000000 0.000000
						}
					}
				}
			}
		}
	}
	JOINT RHipJoint
	{
		OFFSET 0.000000 0.000000 0.000000
		CHANNELS 3 Zrotation Yrotation Xrotation
		JOINT RightUpLeg
		{
			OFFSET -1.800000 -1.400000 0.085000
			CHANNELS 3 Zrotation Yrotation Xrotation
			JOINT RightLeg
			{
				OFFSET -2.215000 -6.000000 0.000000
				CHANNELS 3 Zrotation Yrotation Xrotation
				JOINT RightFoot
				{
					OFFSET -2.500000 -6.900000 0.000000
					CHANNELS 3 Zrotation Yrotation Xrotation
					JOINT RightToeBase
					{
						OFFSET -0.200000 -0.500000 1.950000
						CHANNELS 3 Zrotation Yrotation Xrotation
						End Site
						{
							OFFSET 0.000000 0.000000 0.000000
						}
					}
				}
			}
		}
	}
	JOINT LowerBack
	{
		OFFSET 0.000000 0.000000 0.000000
		CHANNELS 3 Zrotation Yrotation Xrotation
		JOINT Spine
		{
			OFFSET -0.087000 1.940000 -0.288900
			CHANNELS 3 Zrotation Yrotation Xrotation
			JOINT Spine1
			{
				OFFSET 0.000000 1.950000 0.060000
				CHANNELS 3 Zrotation Yrotation Xrotation
				JOINT Neck
				{
					OFFSET 0.000000 0.000000 0.000000
					CHANNELS 3 Zrotation Yrotation Xrotation
					JOINT Neck1
					{
						OFFSET 0.000000 1.600000 0.340000
						CHANNELS 3 Zrotation Yrotation Xrotation
						JOINT Head
						{
							OFFSET 0.000000 1.667000 -0.240000
							CHANNELS 3 Zrotation Yrotation Xrotation
							End Site
							{
								OFFSET 0.000000 0.000000 0.000000
							}
						}
					}
				}
				JOINT LeftShoulder
				{
					OFFSET 0.000000 0.000000 0.000000
					CHANNELS 3 Zrotation Yrotation Xrotation
					JOINT LeftArm
					{
						OFFSET 2.700000 1.550000 -0.730000
						CHANNELS 3 Zrotation Yrotation Xrotation
						JOINT LeftForeArm
						{
							OFFSET 5.450000 0.000000 0.000000
							CHANNELS 3 Zrotation Yrotation Xrotation
							JOINT LeftHand
							{
								OFFSET 3.450000 0.000000 0.000000
								CHANNELS 3 Zrotation Yrotation Xrotation
								JOINT LeftHandIndex1
								{
									OFFSET 0.750000 0.000000 0.000000
									CHANNELS 3 Zrotation Yrotation Xrotation
									End Site
									{
										OFFSET 0.000000 0.000000 0.000000
									}
								}
							}
						}
					}
				}
				JOINT RightShoulder
				{
					OFFSET 0.000000 0.000000 0.000000
					CHANNELS 3 Zrotation Yrotation Xrotation
					JOINT RightArm
					{
						OFFSET -2.700000 1.550000 -0.730000
						CHANNELS 3 Zrotation Yrotation Xrotation
						JOINT RightForeArm
						{
							OFFSET -5.450000 0.000000 0.000000
							CHANNELS 3 Zrotation Yrotation Xrotation
							JOINT RightHand
							{
								OFFSET -3.450000 0.000000 0.000000
								CHANNELS 3 Zrotation Yrotation Xrotation
								JOINT RightHandIndex1
								{
									OFFSET -0.750000 0.000000 0.000000
									CHANNELS 3 Zrotation Yrotation Xrotation
									End Site
									{
										OFFSET 0.000000 0.000000 0.000000
									}
								}
							}
						}
					}
				}
			}
		}
	}
}
MOTION
Frames: 4
Frame Time: 0.016667
-0.672290 16.415710 -3.854360 1.779896 10.755846 4.438696 -14.628985 11.952918 1.681794 13.802623 -1.671623 -15.360410 -3.476540 6.925128 23.004261 -0.219119 4.485672 2.834284 0.239870 0.105580 0.259460 18.988611 -10.028654 5.326393 -40.262480 -0.226659 -24.845499 38.133419 -14.047009 14.418594 -0.883374 -7.470459 1.477615 0.074360 -0.119470 0.077720 -5.462713 0.681722 -8.424837 18.641003 0.567351 11.475350 -6.442777 2.506028 4.167539 1.044234 1.044108 -9.123416 0.032314 -5.894654 44.949197 -2.517510 -4.186120 -8.108200 -22.078678 -9.625784 5.542093 -32.296703 5.467288 -10.133173 0.690666 -62.985154 -2.028893 -3.365914 3.150566 0.359360 -0.100700 0.151670 0.001780 19.176875 10.851317 3.886883 61.450283 11.050132 -2.399620 11.575512 16.349582 0.483295 2.501305 -1.225640 -0.053220 0.095760 -0.027160 -0.151470 
-0.727990 16.407770 -3.830860 3.017018 10.054417 5.086439 -14.592641 11.915841 1.702961 13.096662 -1.750368 -14.615124 -4.140219 6.798311 21.607481 -0.233336 4.360815 2.895536 0.213340 0.067740 0.262190 19.025630 -10.089223 5.276307 -40.127429 -0.544970 -25.282260 36.635314 -13.816738 14.559510 -0.832456 -7.365525 1.506422 0.051150 -0.114320 0.082790 -5.558737 0.796351 -8.377492 18.731713 0.024969 10.585199 -9.293226 2.198951 4.194556 1.772253 1.151759 -9.340344 0.444995 -5.260310 45.148197 -3.254630 -3.206750 -7.654840 -22.014126 -10.476794 5.679128 -32.388955 5.050849 -10.277098 7.263580 -55.524448 -4.464361 -3.386410 3.037940 0.365040 -0.089620 0.148360 -0.013210 17.490332 11.398844 4.312681 64.548919 11.322297 -2.016202 13.625544 15.202721 0.611658 2.522089 -1.231215 -0.063690 0.092000 -0.012730 -0.163140 
-0.788370 16.415530 -3.809210 4.026549 9.550783 5.542579 -14.568375 11.942374 1.725879 12.419621 -1.786107 -13.990804 -4.354069 6.561371 20.322317 -0.236584 4.207875 2.962227 0.193850 0.041530 0.259820 19.044696 -10.119710 5.215311 -39.732692 -0.729080 -25.887258 35.341769 -13.724414 15.044709 -0.791350 -7.270561 1.535710 0.029540 -0.116870 0.084820 -5.618876 0.753411 -8.333768 19.149859 -0.795048 9.964434 -11.888500 1.718217 4.343262 2.433453 0.852727 -9.757468 -0.005407 -4.064547 45.516853 -3.656280 -2.066850 -7.059130 -21.823546 -11.404190 6.033340 -32.825315 4.635685 -9.835867 11.226845 -46.638345 -4.913550 -3.417514 2.969174 0.366230 -0.086180 0.146950 -0.022320 15.812202 12.350541 4.839248 67.018751 11.671862 -1.997664 15.715890 15.095890 0.763772 2.536627 -1.256034 -0.064910 0.077830 -0.006690 -0.169780 
-0.839410 16.433400 -3.793690 4.686442 9.124747 5.750046 -14.555602 12.007445 1.753579 11.919223 -1.739935 -13.143376 -4.561378 6.319667 18.816450 -0.236244 4.077892 3.025615 0.173360 0.012830 0.252450 19.052277 -10.126176 5.127569 -39.228893 -0.905255 -26.680876 34.036861 -13.874915 16.104560 -0.759534 -7.208625 1.555299 0.006530 -0.113320 0.088700 -5.647181 0.591067 -8.282097 19.882954 -1.973432 9.487214 -14.282442 0.948536 4.773559 3.109149 0.297925 -10.333715 -1.062028 -2.741018 45.985935 -4.037160 -1.089800 -6.453770 -21.377077 -12.338468 6.533050 -33.774616 4.120399 -8.899559 14.017043 -37.165589 -4.602968 -3.470952 2.920786 0.370980 -0.083540 0.146490 -0.026880 13.879076 13.472887 5.423927 68.787835 12.208458 -2.276833 18.206392 16.247297 1.031998 2.538395 -1.288517 -0.067650 0.069100 0.001290 -0.172400 
